<?xml version="1.0" encoding="UTF-8" standalone="no"?>
<!-- Created with Inkscape (http://www.inkscape.org/) -->

<svg
   width="74.229805mm"
   height="74.390907mm"
   viewBox="0 0 74.229805 74.390907"
   version="1.1"
   id="svg1"
   xml:space="preserve"
   sodipodi:docname="Novo documento 1.2024_10_16_00_45_26.0.svg"
   xmlns:inkscape="http://www.inkscape.org/namespaces/inkscape"
   xmlns:sodipodi="http://sodipodi.sourceforge.net/DTD/sodipodi-0.dtd"
   xmlns="http://www.w3.org/2000/svg"
   xmlns:svg="http://www.w3.org/2000/svg"><sodipodi:namedview
     id="namedview1"
     pagecolor="#505050"
     bordercolor="#eeeeee"
     borderopacity="1"
     inkscape:showpageshadow="0"
     inkscape:pageopacity="0"
     inkscape:pagecheckerboard="0"
     inkscape:deskcolor="#d1d1d1"
     inkscape:document-units="mm"
     inkscape:export-bgcolor="#00000000" /><defs
     id="defs1" /><g
     inkscape:label="Camada 1"
     inkscape:groupmode="layer"
     id="layer1"
     transform="translate(-67.885103,-153.06904)"><path
       d="m 105.01899,153.07277 c -7.103112,-0.10393 -14.040582,1.95735 -20.427172,6.16397 -7.12101,4.69035 -12.21896,11.2928 -14.95568,19.36987 -1.85215,5.46636 -2.31009,14.49896 -1.01182,19.96054 1.76076,7.40717 6.23809,14.92733 11.88971,19.97087 2.93192,2.61647 10.93779,7.02004 14.06632,7.737 l 1.46606,0.3359 -0.1819,-12.62766 -0.18241,-12.62765 -2.83601,-0.28422 c -3.27703,-0.32891 -4.03806,-1.0718 -4.55476,-4.44624 -0.57382,-3.74737 0.71735,-8.09727 2.5213,-8.49457 0.61756,-0.13602 1.9561,-0.31156 2.97449,-0.39016 l 1.85157,-0.14314 0.29972,-4.58732 c 0.68055,-10.42478 6.792552,-16.33315 17.058392,-16.48943 5.91111,-0.09 7.71585,1.56809 7.73338,7.10551 0.0109,3.44003 -1.1384,6.18773 -2.72283,6.51019 -0.67359,0.1371 -2.39047,0.38412 -3.81579,0.54881 -3.55228,0.41045 -4.10097,0.98997 -3.90157,4.12068 l 0.16485,2.59312 4.88187,0.0992 c 6.33923,0.12883 7.1623,0.80116 7.47861,6.10195 0.38308,6.42021 -1.7047,8.30874 -8.77724,7.94009 l -3.53932,-0.18449 -0.0997,13.05243 -0.10026,13.05192 3.22513,-0.75293 c 10.59755,-2.47406 20.18886,-10.21676 24.84965,-20.05975 2.92937,-6.1865 3.8141,-10.13243 3.73672,-16.66875 -0.12311,-10.39901 -3.5585,-18.27912 -11.32696,-25.98187 -3.6463,-3.61547 -5.51173,-5.00144 -9.07128,-6.74171 -5.54416,-2.71054 -11.16837,-4.10134 -16.69304,-4.18218 z"
       id="path18"
       style="display:inline;fill:#ffffff;fill-opacity:1" /></g></svg>
