<?xml version="1.0" encoding="UTF-8" standalone="no"?>
<!-- Created with Inkscape (http://www.inkscape.org/) -->

<svg
   width="167.5865mm"
   height="167.56166mm"
   viewBox="0 0 167.5865 167.56166"
   version="1.1"
   id="svg1"
   xml:space="preserve"
   sodipodi:docname="Novo documento 1.2024_10_16_00_45_26.0.svg"
   xmlns:inkscape="http://www.inkscape.org/namespaces/inkscape"
   xmlns:sodipodi="http://sodipodi.sourceforge.net/DTD/sodipodi-0.dtd"
   xmlns="http://www.w3.org/2000/svg"
   xmlns:svg="http://www.w3.org/2000/svg"><sodipodi:namedview
     id="namedview1"
     pagecolor="#505050"
     bordercolor="#eeeeee"
     borderopacity="1"
     inkscape:showpageshadow="0"
     inkscape:pageopacity="0"
     inkscape:pagecheckerboard="0"
     inkscape:deskcolor="#d1d1d1"
     inkscape:document-units="mm" /><defs
     id="defs1" /><g
     inkscape:label="Camada 1"
     inkscape:groupmode="layer"
     id="layer1"
     transform="translate(-21.083762,-64.978315)"><path
       style="fill:#ffffff;fill-opacity:1;stroke:none;stroke-width:0.499999;stroke-linejoin:round;stroke-dasharray:none;stroke-opacity:1"
       d="M 97.800413,232.37752 C 66.03816,229.95665 36.93769,207.8521 26.23088,177.83556 20.432219,162.55335 19.682796,145.4823 23.229438,129.59624 30.411237,97.423879 58.244573,71.243017 90.80624,66.078213 c 19.80988,-3.156495 40.76825,0.453213 57.8519,11.187374 25.86686,15.52525 42.03564,45.889953 39.80781,76.064403 -1.06994,35.85989 -28.49981,68.68316 -63.34166,76.81232 -8.91587,2.37468 -18.15608,2.65607 -27.323877,2.23521 z M 132.52727,197.8471 c 13.05135,-1.45727 23.05614,-14.43195 21.58555,-27.34532 -0.12694,-16.96827 0.62358,-33.97354 -0.40717,-50.91112 -1.99721,-12.51195 -14.53564,-21.801587 -27.07075,-20.369437 -16.69009,0.0084 -33.395163,-0.231175 -50.075594,0.298338 -11.92471,2.101519 -21.560171,14.016549 -20.137318,26.181829 0.150799,17.56833 -0.652021,35.17995 0.421626,52.71249 2.336181,11.94122 14.354165,20.79372 26.440633,19.58709 16.412011,0.10621 32.835963,0.26312 49.243023,-0.15387 z"
       id="path35" /><path
       style="fill:#ffffff;fill-opacity:1;stroke:none;stroke-width:1.88976;stroke-linejoin:round;stroke-dasharray:none;stroke-opacity:1"
       d="m 383.31365,668.11748 c -15.82362,-1.97126 -33.67821,-8.7793 -47.5849,-18.14435 -8.24547,-5.55267 -21.50372,-18.80909 -27.05222,-27.0485 -14.50158,-21.53455 -21.13812,-47.25615 -18.35975,-71.15787 1.66005,-14.28107 4.33869,-23.38672 10.70489,-36.38964 14.40479,-29.4217 41.49397,-50.41742 73.66052,-57.0913 11.23223,-2.33044 29.42869,-2.50296 40.59441,-0.38485 70.91233,13.45183 108.25756,90.88814 74.46663,154.40849 -11.88086,22.3337 -32.62668,40.68322 -55.81593,49.36874 -16.03573,6.00617 -34.86299,8.40146 -50.61365,6.43928 z m 36.36848,-37.91595 c 21.79582,-7.63754 38.32563,-25.01467 45.4262,-47.75478 1.99873,-6.40113 2.3476,-9.58031 2.26886,-20.6756 -0.0801,-11.28783 -0.46227,-14.23352 -2.74775,-21.17988 -3.74522,-11.38301 -9.07895,-19.97359 -17.84214,-28.73678 -8.74229,-8.74229 -17.31673,-14.07384 -28.73678,-17.86839 -7.07249,-2.34998 -9.74933,-2.68918 -21.68416,-2.74775 -12.40412,-0.0609 -14.41029,0.19364 -22.54635,2.86026 -5.11095,1.67513 -12.03652,4.95457 -16.19221,7.66744 -21.6729,14.14821 -33.08224,35.15068 -33.14497,61.01366 -0.0783,32.27483 21.68867,60.69716 52.93815,69.12434 5.93752,1.6012 9.86202,1.92006 20.45823,1.66219 11.51094,-0.28013 14.17227,-0.69084 21.80292,-3.36471 z"
       id="path36"
       transform="scale(0.26458333)" /><path
       style="fill:#ffffff;fill-opacity:1;stroke:none;stroke-width:1.88976;stroke-linejoin:round;stroke-dasharray:none;stroke-opacity:1"
       d="m 515.46733,462.33066 c -5.99464,-1.16152 -11.74861,-5.34452 -15.03032,-10.92668 -2.20589,-3.7522 -2.70347,-5.82839 -2.67581,-11.16501 0.049,-9.45318 4.1323,-15.86514 12.97669,-20.37722 6.04805,-3.08548 16.20988,-2.26767 21.94979,1.76649 5.56292,3.90977 9.92442,12.03957 9.91087,18.47376 -0.0206,9.74863 -7.81231,20.096 -16.43775,21.82912 -1.77069,0.35579 -3.90022,0.78516 -4.73228,0.95417 -0.83207,0.169 -3.5146,-0.0806 -5.96119,-0.55463 z"
       id="path37"
       transform="scale(0.26458333)" /></g></svg>
