<?xml version="1.0" encoding="UTF-8" standalone="no"?>
<!-- Created with Inkscape (http://www.inkscape.org/) -->

<svg
   width="111.32592mm"
   height="73.556725mm"
   viewBox="0 0 111.32592 73.556725"
   version="1.1"
   id="svg1"
   xml:space="preserve"
   xmlns:inkscape="http://www.inkscape.org/namespaces/inkscape"
   xmlns:sodipodi="http://sodipodi.sourceforge.net/DTD/sodipodi-0.dtd"
   xmlns="http://www.w3.org/2000/svg"
   xmlns:svg="http://www.w3.org/2000/svg"><sodipodi:namedview
     id="namedview1"
     pagecolor="#505050"
     bordercolor="#eeeeee"
     borderopacity="1"
     inkscape:showpageshadow="0"
     inkscape:pageopacity="0"
     inkscape:pagecheckerboard="0"
     inkscape:deskcolor="#d1d1d1"
     inkscape:document-units="mm"
     inkscape:export-bgcolor="#00000000" /><defs
     id="defs1" /><g
     inkscape:label="Camada 1"
     inkscape:groupmode="layer"
     id="layer1"
     style="display:inline"
     transform="translate(-25.401034,-94.160894)"><g
       id="g10"
       style="display:inline"><path
         style="display:inline;opacity:1;fill:#774c3e;fill-opacity:1;stroke:none;stroke-width:0.499999;stroke-linejoin:round;stroke-opacity:1"
         d="m 65.085642,136.15617 c 0,0 -5.79786,-1.35595 -10.193009,1.44946 -4.395153,2.80542 -6.779757,3.29637 -9.538414,3.20285 -2.758659,-0.0935 -15.289514,-1.05203 -19.544396,-3.17947 -0.489691,-0.13536 -0.478494,0.19578 -0.282567,0.55037 0.324107,0.58657 5.225366,5.2392 10.639228,6.79047 6.55334,1.87776 16.10776,3.34312 25.22536,-3.38988 0.383048,-0.25076 -1.496221,4.90948 -1.496221,4.90948 0,0 -1.262438,3.88083 -6.125157,5.19002 -0.04676,0.0468 -4.516969,1.62389 -5.377048,3.50677 -0.865001,1.89365 -3.132714,5.4238 -3.132714,5.4238 0,0 -1.035154,1.64671 -4.417353,2.16216 -1.956761,0.29821 -3.322757,1.41092 -2.892149,2.11233 0.430608,0.70141 2.1927,0.88107 3.554767,0.86075 1.362067,-0.0203 3.020646,-0.16477 4.502847,-1.8377 1.471667,-1.66104 9.253875,-7.99238 9.466615,-7.43905 0.21274,0.55333 -1.65821,5.38057 -1.65821,5.38057 0,0 -0.755364,1.91117 -3.927581,2.78204 -2.183989,0.63509 -2.988731,1.86676 -2.824356,2.34792 0.204443,0.58229 1.974375,0.72188 2.985857,0.73803 1.011482,0.0161 4.186894,-0.32729 5.168789,-2.61838 0.981895,-2.29109 4.628936,-6.49354 4.628936,-6.49354 0,0 1.432849,-2.27643 6.072727,-2.67317 3.548828,-0.16532 12.443015,-5.56172 14.173022,-9.67633 1.146726,-1.49671 3.316152,-2.77815 5.747562,-3.57542 0,0 -4.499886,-7.95706 -5.196538,-13.36898 -5.472343,1.05235 -13.175395,3.75894 -15.559997,6.8449 z"
         id="path5"
         sodipodi:nodetypes="csscsscccscsszszccczscccscc" /><path
         style="display:inline;opacity:1;fill:#feeec7;fill-opacity:1;stroke:none;stroke-width:0.499999;stroke-linejoin:round;stroke-opacity:1"
         d="m 84.572953,127.83594 c 0,0 6.9257,-2.31616 10.083942,-5.47301 2.943209,-2.94192 6.209485,-5.8497 8.728325,-7.00913 0.70027,-0.32234 6.49807,-9.31133 12.02229,-12.48401 1.12076,-3.246323 3.10509,-8.788542 3.88064,-8.708029 0.64123,0.0423 1.50984,2.185478 1.87046,5.336978 0,0.02963 1.28603,-4.594563 2.00403,-4.766925 0.54514,-0.139462 1.09577,2.109905 0.94166,7.572346 0.0468,0.0468 2.18132,1.14973 2.46643,2.22095 0.11513,0.43259 1.62327,0.8883 3.75909,1.15239 2.54251,0.31438 5.09777,0.55069 5.60892,0.52353 1.21026,-0.0682 0.80485,0.99995 0.25035,1.759 -0.0687,1.0782 -1.00448,2.64573 -2.07879,2.99416 -0.0131,0.0131 0.40318,0.03 0.42883,0.39472 0.0472,0.67029 -0.1507,1.93223 -4.35642,2.5042 -5.84461,0.79486 -6.1847,0.33301 -10.08776,3.60029 -0.68986,0.84193 -0.70052,1.07253 -1.12133,1.91415 -0.0935,0.0935 1.24987,2.94857 1.29663,5.66047 0.0468,0.0468 8.57987,-9e-5 8.57987,-9e-5 0.77515,-0.0174 2.30281,-0.56103 2.39633,4.5121 l 1.32089,-0.0234 c 0.57944,0.005 1.42599,-0.19887 1.65985,2.3145 0.17977,1.93207 0.67797,7.36422 0.67797,7.36422 0,0 0.35068,1.54298 -0.5377,2.94569 -0.0468,0.0468 -1.42609,2.43136 -1.42609,2.43136 0,0 -0.72473,0.98189 -1.1923,0.98189 -0.46757,0 -0.89848,-0.66624 -1.15695,-1.14269 -0.30236,-0.55737 -0.42437,-1.46613 -0.38262,-1.86344 0.0411,-0.39058 0.0234,-1.12102 1.05203,-2.26657 -0.0234,-0.0468 -0.0177,-2.67825 -0.0177,-2.67825 l -0.33641,0.25944 c 0,0 -1.19344,2.96621 -2.60072,3.14526 -0.91118,0.0633 -2.31049,-3.43833 -0.6563,-5.56693 l -13.36507,5.50762 c 0,0 -1.42631,0.90787 -2.63093,-0.0205 -1.26951,-0.97836 -2.33025,-1.94137 -2.27742,-1.96778 l -5.0275,1.7779 c 0,0 -2.7119,0.84162 -5.938128,0.25716 -3.226229,-0.58446 -8.418018,-0.0781 -9.657075,0.50638 -2.452504,-4.20947 -4.205885,-10.77176 -4.181324,-13.66595 z"
         id="path8"
         sodipodi:nodetypes="csscccccsscccssccccccscccsssccccccsccscc" /></g></g></svg>
